<mxfile host="app.diagrams.net" modified="2023-03-28T14:03:04.439Z" agent="5.0 (Windows NT 10.0; Win64; x64) AppleWebKit/537.36 (KHTML, like Gecko) Chrome/111.0.0.0 Safari/537.36" etag="gxUVrC0CcXNV-kdK1E3g" version="21.0.8" type="github">
  <diagram id="C5RBs43oDa-KdzZeNtuy" name="Page-1">
    <mxGraphModel dx="1306" dy="829" grid="0" gridSize="10" guides="1" tooltips="1" connect="1" arrows="1" fold="1" page="1" pageScale="1" pageWidth="827" pageHeight="1169" math="0" shadow="0">
      <root>
        <mxCell id="WIyWlLk6GJQsqaUBKTNV-0" />
        <mxCell id="WIyWlLk6GJQsqaUBKTNV-1" parent="WIyWlLk6GJQsqaUBKTNV-0" />
        <mxCell id="1tPp8XJpOZwxmIHg1qJE-30" style="edgeStyle=orthogonalEdgeStyle;rounded=0;orthogonalLoop=1;jettySize=auto;html=1;entryX=0.5;entryY=0;entryDx=0;entryDy=0;" parent="WIyWlLk6GJQsqaUBKTNV-1" source="WIyWlLk6GJQsqaUBKTNV-3" target="WIyWlLk6GJQsqaUBKTNV-6" edge="1">
          <mxGeometry relative="1" as="geometry" />
        </mxCell>
        <mxCell id="WIyWlLk6GJQsqaUBKTNV-3" value="/api/orders/newOrder" style="rounded=1;whiteSpace=wrap;html=1;fontSize=12;glass=0;strokeWidth=1;shadow=0;" parent="WIyWlLk6GJQsqaUBKTNV-1" vertex="1">
          <mxGeometry x="335" y="75" width="157" height="60" as="geometry" />
        </mxCell>
        <mxCell id="WIyWlLk6GJQsqaUBKTNV-4" value="Authenticated jwt" style="rounded=0;html=1;jettySize=auto;orthogonalLoop=1;fontSize=11;endArrow=block;endFill=0;endSize=8;strokeWidth=1;shadow=0;labelBackgroundColor=none;edgeStyle=orthogonalEdgeStyle;entryX=0.5;entryY=0;entryDx=0;entryDy=0;" parent="WIyWlLk6GJQsqaUBKTNV-1" source="WIyWlLk6GJQsqaUBKTNV-6" target="1tPp8XJpOZwxmIHg1qJE-31" edge="1">
          <mxGeometry x="0.5" y="50" relative="1" as="geometry">
            <mxPoint as="offset" />
            <mxPoint x="394.55882352941194" y="356.05098039215704" as="targetPoint" />
          </mxGeometry>
        </mxCell>
        <mxCell id="WIyWlLk6GJQsqaUBKTNV-5" value="Failure jwt" style="edgeStyle=orthogonalEdgeStyle;rounded=0;html=1;jettySize=auto;orthogonalLoop=1;fontSize=11;endArrow=block;endFill=0;endSize=8;strokeWidth=1;shadow=0;labelBackgroundColor=none;" parent="WIyWlLk6GJQsqaUBKTNV-1" source="WIyWlLk6GJQsqaUBKTNV-6" target="WIyWlLk6GJQsqaUBKTNV-7" edge="1">
          <mxGeometry x="-0.2" y="20" relative="1" as="geometry">
            <mxPoint as="offset" />
          </mxGeometry>
        </mxCell>
        <mxCell id="WIyWlLk6GJQsqaUBKTNV-6" value="authMiddleware" style="rhombus;whiteSpace=wrap;html=1;shadow=0;fontFamily=Helvetica;fontSize=12;align=center;strokeWidth=1;spacing=6;spacingTop=-4;" parent="WIyWlLk6GJQsqaUBKTNV-1" vertex="1">
          <mxGeometry x="344" y="197" width="140" height="120" as="geometry" />
        </mxCell>
        <mxCell id="WIyWlLk6GJQsqaUBKTNV-7" value="401 not authorized" style="rounded=1;whiteSpace=wrap;html=1;fontSize=12;glass=0;strokeWidth=1;shadow=0;fillColor=#f8cecc;strokeColor=#b85450;" parent="WIyWlLk6GJQsqaUBKTNV-1" vertex="1">
          <mxGeometry x="539.5" y="232" width="140" height="50" as="geometry" />
        </mxCell>
        <mxCell id="WIyWlLk6GJQsqaUBKTNV-9" value="None" style="edgeStyle=orthogonalEdgeStyle;rounded=0;html=1;jettySize=auto;orthogonalLoop=1;fontSize=11;endArrow=block;endFill=0;endSize=8;strokeWidth=1;shadow=0;labelBackgroundColor=none;entryX=0;entryY=0.5;entryDx=0;entryDy=0;exitX=1;exitY=0.5;exitDx=0;exitDy=0;" parent="WIyWlLk6GJQsqaUBKTNV-1" source="1tPp8XJpOZwxmIHg1qJE-31" target="WIyWlLk6GJQsqaUBKTNV-12" edge="1">
          <mxGeometry y="10" relative="1" as="geometry">
            <mxPoint as="offset" />
            <mxPoint x="469.5" y="443" as="sourcePoint" />
          </mxGeometry>
        </mxCell>
        <mxCell id="WIyWlLk6GJQsqaUBKTNV-12" value="400 invalid order" style="rounded=1;whiteSpace=wrap;html=1;fontSize=12;glass=0;strokeWidth=1;shadow=0;fillColor=#f8cecc;strokeColor=#b85450;" parent="WIyWlLk6GJQsqaUBKTNV-1" vertex="1">
          <mxGeometry x="539.5" y="413" width="140" height="50" as="geometry" />
        </mxCell>
        <mxCell id="1tPp8XJpOZwxmIHg1qJE-3" value="" style="edgeStyle=orthogonalEdgeStyle;rounded=0;orthogonalLoop=1;jettySize=auto;html=1;" parent="WIyWlLk6GJQsqaUBKTNV-1" source="1tPp8XJpOZwxmIHg1qJE-5" target="1tPp8XJpOZwxmIHg1qJE-2" edge="1">
          <mxGeometry relative="1" as="geometry">
            <mxPoint x="491.25" y="552" as="sourcePoint" />
          </mxGeometry>
        </mxCell>
        <mxCell id="1tPp8XJpOZwxmIHg1qJE-26" style="edgeStyle=orthogonalEdgeStyle;rounded=0;orthogonalLoop=1;jettySize=auto;html=1;exitX=0.5;exitY=1;exitDx=0;exitDy=0;entryX=0.5;entryY=0;entryDx=0;entryDy=0;" parent="WIyWlLk6GJQsqaUBKTNV-1" source="1tPp8XJpOZwxmIHg1qJE-2" target="1tPp8XJpOZwxmIHg1qJE-10" edge="1">
          <mxGeometry relative="1" as="geometry" />
        </mxCell>
        <mxCell id="1tPp8XJpOZwxmIHg1qJE-2" value="Create new order" style="whiteSpace=wrap;html=1;fillColor=#dae8fc;strokeColor=#6c8ebf;" parent="WIyWlLk6GJQsqaUBKTNV-1" vertex="1">
          <mxGeometry x="111.25" y="531" width="167" height="60" as="geometry" />
        </mxCell>
        <mxCell id="1tPp8XJpOZwxmIHg1qJE-27" style="edgeStyle=orthogonalEdgeStyle;rounded=0;orthogonalLoop=1;jettySize=auto;html=1;" parent="WIyWlLk6GJQsqaUBKTNV-1" source="1tPp8XJpOZwxmIHg1qJE-10" target="1tPp8XJpOZwxmIHg1qJE-20" edge="1">
          <mxGeometry relative="1" as="geometry" />
        </mxCell>
        <mxCell id="1tPp8XJpOZwxmIHg1qJE-10" value="Order" style="swimlane;fontStyle=0;childLayout=stackLayout;horizontal=1;startSize=30;horizontalStack=0;resizeParent=1;resizeParentMax=0;resizeLast=0;collapsible=1;marginBottom=0;whiteSpace=wrap;html=1;fillColor=#dae8fc;strokeColor=#6c8ebf;" parent="WIyWlLk6GJQsqaUBKTNV-1" vertex="1">
          <mxGeometry x="73" y="648" width="243.5" height="210" as="geometry" />
        </mxCell>
        <mxCell id="1tPp8XJpOZwxmIHg1qJE-11" value="user: req.user" style="text;strokeColor=none;fillColor=none;align=left;verticalAlign=middle;spacingLeft=4;spacingRight=4;overflow=hidden;points=[[0,0.5],[1,0.5]];portConstraint=eastwest;rotatable=0;whiteSpace=wrap;html=1;" parent="1tPp8XJpOZwxmIHg1qJE-10" vertex="1">
          <mxGeometry y="30" width="243.5" height="30" as="geometry" />
        </mxCell>
        <mxCell id="1tPp8XJpOZwxmIHg1qJE-12" value="shippingAdress: shippingAdress" style="text;strokeColor=none;fillColor=none;align=left;verticalAlign=middle;spacingLeft=4;spacingRight=4;overflow=hidden;points=[[0,0.5],[1,0.5]];portConstraint=eastwest;rotatable=0;whiteSpace=wrap;html=1;" parent="1tPp8XJpOZwxmIHg1qJE-10" vertex="1">
          <mxGeometry y="60" width="243.5" height="30" as="geometry" />
        </mxCell>
        <mxCell id="1tPp8XJpOZwxmIHg1qJE-18" value="quantity: orderItems.length" style="text;strokeColor=none;fillColor=none;align=left;verticalAlign=middle;spacingLeft=4;spacingRight=4;overflow=hidden;points=[[0,0.5],[1,0.5]];portConstraint=eastwest;rotatable=0;whiteSpace=wrap;html=1;" parent="1tPp8XJpOZwxmIHg1qJE-10" vertex="1">
          <mxGeometry y="90" width="243.5" height="30" as="geometry" />
        </mxCell>
        <mxCell id="1tPp8XJpOZwxmIHg1qJE-17" value="price: price" style="text;strokeColor=none;fillColor=none;align=left;verticalAlign=middle;spacingLeft=4;spacingRight=4;overflow=hidden;points=[[0,0.5],[1,0.5]];portConstraint=eastwest;rotatable=0;whiteSpace=wrap;html=1;" parent="1tPp8XJpOZwxmIHg1qJE-10" vertex="1">
          <mxGeometry y="120" width="243.5" height="30" as="geometry" />
        </mxCell>
        <mxCell id="1tPp8XJpOZwxmIHg1qJE-13" value="orderItems: orderItems //just ids" style="text;strokeColor=none;fillColor=none;align=left;verticalAlign=middle;spacingLeft=4;spacingRight=4;overflow=hidden;points=[[0,0.5],[1,0.5]];portConstraint=eastwest;rotatable=0;whiteSpace=wrap;html=1;" parent="1tPp8XJpOZwxmIHg1qJE-10" vertex="1">
          <mxGeometry y="150" width="243.5" height="30" as="geometry" />
        </mxCell>
        <mxCell id="1tPp8XJpOZwxmIHg1qJE-19" value="createdAt: moment()" style="text;strokeColor=none;fillColor=none;align=left;verticalAlign=middle;spacingLeft=4;spacingRight=4;overflow=hidden;points=[[0,0.5],[1,0.5]];portConstraint=eastwest;rotatable=0;whiteSpace=wrap;html=1;" parent="1tPp8XJpOZwxmIHg1qJE-10" vertex="1">
          <mxGeometry y="180" width="243.5" height="30" as="geometry" />
        </mxCell>
        <mxCell id="1tPp8XJpOZwxmIHg1qJE-23" value="" style="edgeStyle=orthogonalEdgeStyle;rounded=0;orthogonalLoop=1;jettySize=auto;html=1;" parent="WIyWlLk6GJQsqaUBKTNV-1" source="1tPp8XJpOZwxmIHg1qJE-36" target="1tPp8XJpOZwxmIHg1qJE-22" edge="1">
          <mxGeometry relative="1" as="geometry" />
        </mxCell>
        <mxCell id="1tPp8XJpOZwxmIHg1qJE-20" value="save order" style="whiteSpace=wrap;html=1;fontStyle=0;startSize=30;fillColor=#dae8fc;strokeColor=#6c8ebf;" parent="WIyWlLk6GJQsqaUBKTNV-1" vertex="1">
          <mxGeometry x="384.25" y="723" width="167" height="60" as="geometry" />
        </mxCell>
        <mxCell id="1tPp8XJpOZwxmIHg1qJE-22" value="201 - order created" style="whiteSpace=wrap;html=1;fontStyle=0;startSize=30;fillColor=#d5e8d4;strokeColor=#82b366;" parent="WIyWlLk6GJQsqaUBKTNV-1" vertex="1">
          <mxGeometry x="384.25" y="989" width="167" height="60" as="geometry" />
        </mxCell>
        <mxCell id="1tPp8XJpOZwxmIHg1qJE-5" value="cart.map update stocks of all products" style="whiteSpace=wrap;html=1;fillColor=#dae8fc;strokeColor=#6c8ebf;" parent="WIyWlLk6GJQsqaUBKTNV-1" vertex="1">
          <mxGeometry x="330" y="531" width="167" height="60" as="geometry" />
        </mxCell>
        <mxCell id="MS4_fHGXiQdNnzJWBzkv-0" value="" style="edgeStyle=orthogonalEdgeStyle;rounded=0;orthogonalLoop=1;jettySize=auto;html=1;" parent="WIyWlLk6GJQsqaUBKTNV-1" source="1tPp8XJpOZwxmIHg1qJE-31" target="1tPp8XJpOZwxmIHg1qJE-5" edge="1">
          <mxGeometry relative="1" as="geometry" />
        </mxCell>
        <mxCell id="1tPp8XJpOZwxmIHg1qJE-31" value="orderItems" style="rhombus;whiteSpace=wrap;html=1;shadow=0;fontFamily=Helvetica;fontSize=12;align=center;strokeWidth=1;spacing=6;spacingTop=-4;" parent="WIyWlLk6GJQsqaUBKTNV-1" vertex="1">
          <mxGeometry x="344" y="378" width="140" height="120" as="geometry" />
        </mxCell>
        <mxCell id="1tPp8XJpOZwxmIHg1qJE-33" value="Response" style="text;html=1;align=center;verticalAlign=middle;resizable=0;points=[];autosize=1;strokeColor=none;fillColor=none;" parent="WIyWlLk6GJQsqaUBKTNV-1" vertex="1">
          <mxGeometry x="471.25" y="798" width="80" height="30" as="geometry" />
        </mxCell>
        <mxCell id="1tPp8XJpOZwxmIHg1qJE-37" value="" style="edgeStyle=orthogonalEdgeStyle;rounded=0;orthogonalLoop=1;jettySize=auto;html=1;" parent="WIyWlLk6GJQsqaUBKTNV-1" source="1tPp8XJpOZwxmIHg1qJE-20" target="1tPp8XJpOZwxmIHg1qJE-36" edge="1">
          <mxGeometry relative="1" as="geometry">
            <mxPoint x="467.25" y="783" as="sourcePoint" />
            <mxPoint x="467.25" y="1008" as="targetPoint" />
          </mxGeometry>
        </mxCell>
        <mxCell id="1tPp8XJpOZwxmIHg1qJE-36" value="" style="dashed=0;outlineConnect=0;html=1;align=center;labelPosition=center;verticalLabelPosition=bottom;verticalAlign=top;shape=mxgraph.weblogos.json" parent="WIyWlLk6GJQsqaUBKTNV-1" vertex="1">
          <mxGeometry x="432.75" y="859" width="70" height="75.8" as="geometry" />
        </mxCell>
      </root>
    </mxGraphModel>
  </diagram>
</mxfile>
